<?xml version="1.0" encoding="utf-8"?>
<!-- Generator: Adobe Illustrator 28.1.0, SVG Export Plug-In . SVG Version: 6.00 Build 0)  -->
<svg version="1.1" id="Ebene_3" xmlns="http://www.w3.org/2000/svg" xmlns:xlink="http://www.w3.org/1999/xlink" x="0px" y="0px"
	 viewBox="0 0 1920 1080" style="enable-background:new 0 0 1920 1080;" xml:space="preserve">
<style type="text/css">
	.st0{fill:#E28657;}
	.st1{fill:#105050;stroke:#105050;stroke-miterlimit:10;}
</style>
<circle class="st0" cx="960" cy="540" r="250.7"/>
<g id="Ebene_4">
	<path class="st1" d="M809.8,589.7c-0.7,6.7-6.5,73.7,46.1,120.5c46.6,41.5,174.5,36,216.5-7.2c45-46.3,38.4-105.8,37.4-113.3
		c-4.6-2.1-11.3-4.8-19.8-7.2c-10.2-2.9-18.4-3.9-22.8-4.4c-48.4-5.5-167.3-7-212.8-0.4c-12.9,1.9-24.2,5-25.1,5.3
		C821.1,585.3,814.3,587.8,809.8,589.7z"/>
	<path class="st0" d="M825.5,592.1c5.2-1.8,11.4-3.5,18.4-4.7c8.8-1.6,16.7-2,23.3-1.9c0.6,2,1.7,4.7,3.8,7.6
		c3.3,4.3,7.2,6.6,9.4,7.6c-9.7,0.1-21.2-0.7-34-3.1C838.7,596,831.7,594.1,825.5,592.1z"/>
	<path class="st0" d="M1060.1,585.4c4.9,0.3,10.3,0.9,16.1,2c7.1,1.3,13.5,2.9,19.1,4.7c-6.1,1.6-12.9,3-20.4,4.1
		c-7,1-13.6,1.6-19.5,1.8c1-1.6,2.1-3.6,3.1-6.1C1059.3,589.4,1059.8,587.2,1060.1,585.4z"/>
	<path class="st1" d="M944.7,359.5c-0.5,0.2,3.6,6.8,4.8,18.5c1.1,10.9-1.1,19.1-1.7,21.1c-2.8,9.4-7.2,15.5-8.2,16.8
		c-3.2,4.2-4.4,4.5-9.6,9.8c-6.6,6.9-11.2,11.6-14.4,18.7c-4.6,10.3-3.9,19.7-3.6,23.5c0.7,8.2,3.5,16.5,5,16.3
		c1.5-0.2,0.1-8.1,2.5-17.3c3-11.3,9.4-15.7,19.8-27.8c13.3-15.6,20-23.3,22.1-33.1C966.5,382.7,945.7,359,944.7,359.5z"/>
	<path class="st1" d="M981.4,336.1c-4.4,2.1,14.4,29.9,4.3,60.8c-3.8,11.7-11.2,22.2-13.3,25.2c-8.2,11.5-12.9,13.3-22,23.8
		c-6,6.9-17.2,19.9-21.6,36.7c-6.3,23.9,3.2,48.8,7.6,48.6c4-0.2-0.8-20.4,11.9-43.6c9.3-17.1,17.6-16.5,40.3-45.7
		c11.9-15.3,14.7-22,16.2-26.3c6.1-17.5,3.5-33,2.2-39.2C1001.7,352.7,985.1,334.3,981.4,336.1z"/>
	<path class="st1" d="M1062.4,577c1.5-5.2,2.9-11.6,3.6-18.9c0.7-7.1,0.7-13.5,0.4-18.8c3.8-2.6,8.1-6,12.5-10.4
		c5.2-5.2,9-10.4,11.8-14.8c-4.3,1.9-9.7,3.8-16,5.2c-4.5,1-8.6,1.5-12.3,1.8c3.2-1.6,8-4.6,12.5-9.7c5.7-6.5,8-13.2,9-16.9
		c-4.3,2.6-9.6,5.3-16.1,7.7c-5.5,2-10.5,3.3-14.9,4.1c-15.3-16.1-39.6-20.1-59-9.8c-20,10.5-30.4,33.7-25,55.9
		c-12.6-0.9-34.1-4-57.6-16.1c-22.2-11.5-36.7-26.1-44.8-35.5c-1.9,3.3-9.3,16.9-5.6,34.6c3.9,19.1,17.9,29,20.8,30.9
		c-3.1-0.2-7-0.7-11.4-1.9c-4.2-1.1-7.7-2.6-10.4-4c-0.1,2.3-0.1,5.4,0.5,8.8c0.6,3.3,1.5,6.1,2.4,8.2"/>
</g>
</svg>
